<svg xmlns="http://www.w3.org/2000/svg" xml:space="preserve" style="fill-rule:evenodd;clip-rule:evenodd;stroke-linejoin:round;stroke-miterlimit:2" viewBox="0 0 256 256"><g transform="scale(.256)"><circle cx="500" cy="500" r="500" style="fill:#8250df"/><path d="M8 16c-4.389 0-8-3.611-8-8s3.611-8 8-8 8 3.611 8 8-3.611 8-8 8m3.031-12a4.38 4.38 0 0 0-3.097 1.283l-.23.229q-.235.235-.452.49H5.65a.88.88 0 0 0-.746.417l-.856 1.388a.377.377 0 0 0 .21.556l1.552.477 1.35 1.35.478 1.553a.374.374 0 0 0 .555.21l1.389-.855a.88.88 0 0 0 .416-.746V8.747q.255-.216.49-.452l.23-.23A4.38 4.38 0 0 0 12 4.969v-.093A.88.88 0 0 0 11.124 4zm-5.107 7.144h-.001a.813.813 0 0 0-.74-1.137.8.8 0 0 0-.59.256c-.395.394-.564 1.258-.62 1.62a.12.12 0 0 0 .035.108.12.12 0 0 0 .108.035c.362-.056 1.226-.225 1.62-.619a.8.8 0 0 0 .188-.263" style="fill:#fff;fill-rule:nonzero" transform="translate(125 125)scale(46.875)"/></g></svg>